<svg viewBox="0 0 900 300" xmlns="http://www.w3.org/2000/svg">
 <g>
  <path stroke="#000" id="svg_1" d="m45.208705,222.151787c5.670374,-18.566292 13.431558,-34.290017 20.793532,-42.126479c7.88717,-8.39552 4.387903,-12.037228 -3.748356,-3.900946c-3.423025,3.423005 -4.401029,0.937528 -4.401029,-11.184699c0,-28.922667 14.99294,-46.819172 51.066755,-60.956368c30.523798,-11.962222 53.027632,-25.414513 62.358206,-37.276404l7.603263,-9.666026l0,16.817931c0,20.795624 -6.451826,52.212775 -13.593413,66.193094c-7.575947,14.830678 -33.543435,42.205918 -46.286101,48.795399c-11.4163,5.903636 -35.797858,7.641633 -48.828656,3.480682c-6.493783,-2.073546 -8.554706,-0.489252 -11.919444,9.162847c-2.23746,6.418387 -4.06812,15.549543 -4.06812,20.291383c0,5.383303 -2.159101,8.621506 -5.748433,8.621506c-4.263048,0 -5.097204,-2.132245 -3.228196,-8.251921l-0.000006,0z" stroke-width="0" fill="#2d2d2d"/>
  <text stroke="#000" transform="matrix(2.3991849872882085,0,0,2.3991849872882085,-251.910867517252,-101.07016262513662) " font-style="italic" font-weight="bold" xml:space="preserve" text-anchor="start" font-family="'Shadows Into Light', serif" font-size="100" id="svg_2" y="138.408316" x="188.08489" stroke-width="0" fill="#2d2d2d">Bloom</text>
 </g>
</svg>