<svg viewBox="0 0 300 300" xmlns="http://www.w3.org/2000/svg">
 <g>
  <ellipse ry="106.5" rx="106.5" id="svg_2" cy="150.953125" cx="148" stroke-width="2" stroke="#004401" fill="#ffffff"/>
  <path id="svg_1" d="m86.745889,199.837177c10.827859,-11.525733 6.023909,-16.525228 -5.145909,-5.355388c-4.699282,4.699249 -6.04193,1.287079 -6.04193,-15.354839c0,-39.706292 20.582977,-64.275389 70.106719,-83.683544c41.90443,-16.422257 72.798697,-34.890145 85.608126,-51.174664l10.438098,-13.26994l0,23.088385c0,28.549135 -8.857354,71.679961 -18.661644,90.872749c-10.400598,20.360198 -46.049923,57.942114 -63.543624,66.98844c-15.672806,8.104767 -49.144896,10.490764 -67.034157,4.778431c-8.914954,-2.846654 -6.872501,25.441208 -23.301645,5.671236l17.575966,-22.560866z" stroke-width="2" stroke="#004401" fill="#14bc14"/>
 </g>
</svg>