<svg viewBox="0 0 300 300" xmlns="http://www.w3.org/2000/svg">
 <g>
  <path id="svg_1" d="m60.199602,258.075961c7.784543,-25.488611 18.439442,-47.074822 28.546287,-57.833056c10.827858,-11.525734 6.023908,-16.525228 -5.14591,-5.355388c-4.699282,4.699249 -6.041929,1.287079 -6.041929,-15.354839c0,-39.706291 20.582977,-64.275389 70.106719,-83.683544c41.90443,-16.422257 72.798698,-34.890145 85.608126,-51.174664l10.438098,-13.26994l0,23.088385c0,28.549134 -8.857354,71.679961 -18.661644,90.872749c-10.400598,20.360198 -46.049923,57.942114 -63.543624,66.988439c-15.672806,8.104768 -49.144895,10.490765 -67.034157,4.778431c-8.914954,-2.846654 -11.744281,-0.671666 -16.363544,12.579153c-3.071685,8.81144 -5.584897,21.347087 -5.584897,27.85689c0,7.390431 -2.96411,11.835977 -7.891704,11.835977c-5.852502,0 -6.997668,-2.927239 -4.431812,-11.328595l-0.000008,0z" stroke-width="2" stroke="#004401" fill="#14bc14"/>
 </g>
</svg>